<?xml version="1.0" encoding="UTF-8" standalone="no"?><!DOCTYPE svg PUBLIC "-//W3C//DTD SVG 1.1//EN" "http://www.w3.org/Graphics/SVG/1.1/DTD/svg11.dtd"><!-- Generated by graphviz version 2.40.1 (20161225.0304)
 --><!-- Title: Tree Pages: 1 --><svg xmlns="http://www.w3.org/2000/svg" xmlns:xlink="http://www.w3.org/1999/xlink" width="534pt" height="467pt" viewBox="0.00 0.00 534.31 467.20">
<g id="graph0" class="graph" transform="scale(1 1) rotate(0) translate(4 463.2)">
<title>Tree</title>
<polygon fill="#ffffff" stroke="transparent" points="-4,4 -4,-463.2 530.3077,-463.2 530.3077,4 -4,4"/>
<!-- 0 -->
<g id="node1" class="node">
<title>0</title>
<polygon fill="#fffdfc" stroke="#000000" points="261.9617,-459.2 110.1181,-459.2 110.1181,-367.2 261.9617,-367.2 261.9617,-459.2"/>
<text text-anchor="middle" x="186.0399" y="-442.6" font-family="Times,serif" font-size="14.00" fill="#000000">petal length (cm) &lt;= 2.6</text>
<text text-anchor="middle" x="186.0399" y="-425.8" font-family="Times,serif" font-size="14.00" fill="#000000">gini = 0.666</text>
<text text-anchor="middle" x="186.0399" y="-409" font-family="Times,serif" font-size="14.00" fill="#000000">samples = 120</text>
<text text-anchor="middle" x="186.0399" y="-392.2" font-family="Times,serif" font-size="14.00" fill="#000000">value = [42, 41, 37]</text>
<text text-anchor="middle" x="186.0399" y="-375.4" font-family="Times,serif" font-size="14.00" fill="#000000">class = setosa</text>
</g>
<!-- 1 -->
<g id="node2" class="node">
<title>1</title>
<polygon fill="#e58139" stroke="#000000" points="166.0765,-322.9003 54.0033,-322.9003 54.0033,-247.4997 166.0765,-247.4997 166.0765,-322.9003"/>
<text text-anchor="middle" x="110.0399" y="-306.2" font-family="Times,serif" font-size="14.00" fill="#000000">gini = 0.0</text>
<text text-anchor="middle" x="110.0399" y="-289.4" font-family="Times,serif" font-size="14.00" fill="#000000">samples = 42</text>
<text text-anchor="middle" x="110.0399" y="-272.6" font-family="Times,serif" font-size="14.00" fill="#000000">value = [42, 0, 0]</text>
<text text-anchor="middle" x="110.0399" y="-255.8" font-family="Times,serif" font-size="14.00" fill="#000000">class = setosa</text>
</g>
<!-- 0&#45;&gt;1 -->
<g id="edge1" class="edge">
<title>0-&gt;1</title>
<path fill="none" stroke="#000000" d="M158.6022,-366.9891C151.7581,-355.4622 144.4174,-343.099 137.5689,-331.5647"/>
<polygon fill="#000000" stroke="#000000" points="140.5591,-329.7452 132.4442,-322.9335 134.5401,-333.319 140.5591,-329.7452"/>
<text text-anchor="middle" x="126.2691" y="-342.9589" font-family="Times,serif" font-size="14.00" fill="#000000">True</text>
</g>
<!-- 2 -->
<g id="node3" class="node">
<title>2</title>
<polygon fill="#ecfcf3" stroke="#000000" points="339.8538,-331.2 184.226,-331.2 184.226,-239.2 339.8538,-239.2 339.8538,-331.2"/>
<text text-anchor="middle" x="262.0399" y="-314.6" font-family="Times,serif" font-size="14.00" fill="#000000">petal width (cm) &lt;= 1.75</text>
<text text-anchor="middle" x="262.0399" y="-297.8" font-family="Times,serif" font-size="14.00" fill="#000000">gini = 0.499</text>
<text text-anchor="middle" x="262.0399" y="-281" font-family="Times,serif" font-size="14.00" fill="#000000">samples = 78</text>
<text text-anchor="middle" x="262.0399" y="-264.2" font-family="Times,serif" font-size="14.00" fill="#000000">value = [0, 41, 37]</text>
<text text-anchor="middle" x="262.0399" y="-247.4" font-family="Times,serif" font-size="14.00" fill="#000000">class = versicolor</text>
</g>
<!-- 0&#45;&gt;2 -->
<g id="edge2" class="edge">
<title>0-&gt;2</title>
<path fill="none" stroke="#000000" d="M213.4776,-366.9891C218.6436,-358.2885 224.0925,-349.1115 229.399,-340.1741"/>
<polygon fill="#000000" stroke="#000000" points="232.5465,-341.7286 234.6424,-331.3431 226.5275,-338.1548 232.5465,-341.7286"/>
<text text-anchor="middle" x="240.8175" y="-351.3685" font-family="Times,serif" font-size="14.00" fill="#000000">False</text>
</g>
<!-- 3 -->
<g id="node4" class="node">
<title>3</title>
<polygon fill="#52e891" stroke="#000000" points="253.4617,-203.2 94.6181,-203.2 94.6181,-111.2 253.4617,-111.2 253.4617,-203.2"/>
<text text-anchor="middle" x="174.0399" y="-186.6" font-family="Times,serif" font-size="14.00" fill="#000000">petal length (cm) &lt;= 4.95</text>
<text text-anchor="middle" x="174.0399" y="-169.8" font-family="Times,serif" font-size="14.00" fill="#000000">gini = 0.198</text>
<text text-anchor="middle" x="174.0399" y="-153" font-family="Times,serif" font-size="14.00" fill="#000000">samples = 45</text>
<text text-anchor="middle" x="174.0399" y="-136.2" font-family="Times,serif" font-size="14.00" fill="#000000">value = [0, 40, 5]</text>
<text text-anchor="middle" x="174.0399" y="-119.4" font-family="Times,serif" font-size="14.00" fill="#000000">class = versicolor</text>
</g>
<!-- 2&#45;&gt;3 -->
<g id="edge3" class="edge">
<title>2-&gt;3</title>
<path fill="none" stroke="#000000" d="M230.2699,-238.9891C224.1636,-230.1072 217.716,-220.7289 211.4508,-211.6158"/>
<polygon fill="#000000" stroke="#000000" points="214.3128,-209.6007 205.7633,-203.3431 208.5445,-213.5664 214.3128,-209.6007"/>
</g>
<!-- 6 -->
<g id="node7" class="node">
<title>6</title>
<polygon fill="#853fe6" stroke="#000000" points="430.4617,-203.2 271.6181,-203.2 271.6181,-111.2 430.4617,-111.2 430.4617,-203.2"/>
<text text-anchor="middle" x="351.0399" y="-186.6" font-family="Times,serif" font-size="14.00" fill="#000000">petal length (cm) &lt;= 4.85</text>
<text text-anchor="middle" x="351.0399" y="-169.8" font-family="Times,serif" font-size="14.00" fill="#000000">gini = 0.059</text>
<text text-anchor="middle" x="351.0399" y="-153" font-family="Times,serif" font-size="14.00" fill="#000000">samples = 33</text>
<text text-anchor="middle" x="351.0399" y="-136.2" font-family="Times,serif" font-size="14.00" fill="#000000">value = [0, 1, 32]</text>
<text text-anchor="middle" x="351.0399" y="-119.4" font-family="Times,serif" font-size="14.00" fill="#000000">class = virginica</text>
</g>
<!-- 2&#45;&gt;6 -->
<g id="edge6" class="edge">
<title>2-&gt;6</title>
<path fill="none" stroke="#000000" d="M294.1709,-238.9891C300.3466,-230.1072 306.8675,-220.7289 313.2039,-211.6158"/>
<polygon fill="#000000" stroke="#000000" points="316.1208,-213.5516 318.956,-203.3431 310.3736,-209.5554 316.1208,-213.5516"/>
</g>
<!-- 4 -->
<g id="node5" class="node">
<title>4</title>
<polygon fill="#3ee684" stroke="#000000" points="114.1197,-75.3003 -.0399,-75.3003 -.0399,.1003 114.1197,.1003 114.1197,-75.3003"/>
<text text-anchor="middle" x="57.0399" y="-58.6" font-family="Times,serif" font-size="14.00" fill="#000000">gini = 0.05</text>
<text text-anchor="middle" x="57.0399" y="-41.8" font-family="Times,serif" font-size="14.00" fill="#000000">samples = 39</text>
<text text-anchor="middle" x="57.0399" y="-25" font-family="Times,serif" font-size="14.00" fill="#000000">value = [0, 38, 1]</text>
<text text-anchor="middle" x="57.0399" y="-8.2" font-family="Times,serif" font-size="14.00" fill="#000000">class = versicolor</text>
</g>
<!-- 3&#45;&gt;4 -->
<g id="edge4" class="edge">
<title>3-&gt;4</title>
<path fill="none" stroke="#000000" d="M128.8046,-110.9595C119.6714,-101.6233 110.0829,-91.8217 100.9944,-82.5313"/>
<polygon fill="#000000" stroke="#000000" points="103.326,-79.9097 93.8311,-75.2088 98.3222,-84.8047 103.326,-79.9097"/>
</g>
<!-- 5 -->
<g id="node6" class="node">
<title>5</title>
<polygon fill="#c09cf2" stroke="#000000" points="239.9052,-75.3003 132.1746,-75.3003 132.1746,.1003 239.9052,.1003 239.9052,-75.3003"/>
<text text-anchor="middle" x="186.0399" y="-58.6" font-family="Times,serif" font-size="14.00" fill="#000000">gini = 0.444</text>
<text text-anchor="middle" x="186.0399" y="-41.8" font-family="Times,serif" font-size="14.00" fill="#000000">samples = 6</text>
<text text-anchor="middle" x="186.0399" y="-25" font-family="Times,serif" font-size="14.00" fill="#000000">value = [0, 2, 4]</text>
<text text-anchor="middle" x="186.0399" y="-8.2" font-family="Times,serif" font-size="14.00" fill="#000000">class = virginica</text>
</g>
<!-- 3&#45;&gt;5 -->
<g id="edge5" class="edge">
<title>3-&gt;5</title>
<path fill="none" stroke="#000000" d="M178.6794,-110.9595C179.5234,-102.5477 180.4053,-93.7581 181.2535,-85.3049"/>
<polygon fill="#000000" stroke="#000000" points="184.7505,-85.5083 182.2664,-75.2088 177.7855,-84.8094 184.7505,-85.5083"/>
</g>
<!-- 7 -->
<g id="node8" class="node">
<title>7</title>
<polygon fill="#ffffff" stroke="#000000" points="396.1197,-75.3003 281.9601,-75.3003 281.9601,.1003 396.1197,.1003 396.1197,-75.3003"/>
<text text-anchor="middle" x="339.0399" y="-58.6" font-family="Times,serif" font-size="14.00" fill="#000000">gini = 0.5</text>
<text text-anchor="middle" x="339.0399" y="-41.8" font-family="Times,serif" font-size="14.00" fill="#000000">samples = 2</text>
<text text-anchor="middle" x="339.0399" y="-25" font-family="Times,serif" font-size="14.00" fill="#000000">value = [0, 1, 1]</text>
<text text-anchor="middle" x="339.0399" y="-8.2" font-family="Times,serif" font-size="14.00" fill="#000000">class = versicolor</text>
</g>
<!-- 6&#45;&gt;7 -->
<g id="edge7" class="edge">
<title>6-&gt;7</title>
<path fill="none" stroke="#000000" d="M346.4004,-110.9595C345.5564,-102.5477 344.6745,-93.7581 343.8263,-85.3049"/>
<polygon fill="#000000" stroke="#000000" points="347.2943,-84.8094 342.8134,-75.2088 340.3293,-85.5083 347.2943,-84.8094"/>
</g>
<!-- 8 -->
<g id="node9" class="node">
<title>8</title>
<polygon fill="#8139e5" stroke="#000000" points="526.0765,-75.3003 414.0033,-75.3003 414.0033,.1003 526.0765,.1003 526.0765,-75.3003"/>
<text text-anchor="middle" x="470.0399" y="-58.6" font-family="Times,serif" font-size="14.00" fill="#000000">gini = 0.0</text>
<text text-anchor="middle" x="470.0399" y="-41.8" font-family="Times,serif" font-size="14.00" fill="#000000">samples = 31</text>
<text text-anchor="middle" x="470.0399" y="-25" font-family="Times,serif" font-size="14.00" fill="#000000">value = [0, 0, 31]</text>
<text text-anchor="middle" x="470.0399" y="-8.2" font-family="Times,serif" font-size="14.00" fill="#000000">class = virginica</text>
</g>
<!-- 6&#45;&gt;8 -->
<g id="edge8" class="edge">
<title>6-&gt;8</title>
<path fill="none" stroke="#000000" d="M397.0484,-110.9595C406.3377,-101.6233 416.0902,-91.8217 425.334,-82.5313"/>
<polygon fill="#000000" stroke="#000000" points="428.0476,-84.7663 432.6197,-75.2088 423.0854,-79.829 428.0476,-84.7663"/>
</g>
</g>
</svg>